# xmcd
#
# Track frame offsets: 
#        150
#        17537
#        34982
#        54057
#        76007
#        92450
#        108527
#        126427
#        147350
#        161480
#
# Disc length: 2375 seconds
#
# Revision: 4
# Processed by: cddbd v1.5.2PL0 Copyright (c) Steve Scherf et al.
# Submitted via: ExactAudioCopy v0.95b4
#
DISCID=7309450a
DTITLE=Dan Seals - Greatest Hits
DYEAR=1991
DGENRE=Country
TTITLE0=Love On Arrival
TTITLE1=Big Wheels In The Moonlight
TTITLE2=Addicted
TTITLE3=Everything That Glitters (Is Not Gold)
TTITLE4=Bop
TTITLE5=Good Times
TTITLE6=Bordertown
TTITLE7=They Rage On
TTITLE8=Water Under The Bridge
TTITLE9=Ball And Chain
EXTD=
EXTT0=
EXTT1=
EXTT2=
EXTT3=
EXTT4=
EXTT5=
EXTT6=
EXTT7=
EXTT8=
EXTT9=
PLAYORDER=
